<svg width="35" height="27" viewBox="0 0 35 27" fill="none" xmlns="http://www.w3.org/2000/svg">
<g clip-path="url(#clip0_0_1565)">
<path d="M34.7861 -10.0573C34.431 -10.3421 31.5909 -10.5752 29.925 -10.6011C27.0302 -10.627 24.4631 -10.5752 22.0872 -10.0573C20.7217 -9.77245 19.247 -9.0733 17.5265 -9.0733C17.4992 -9.0733 17.4992 -9.0733 17.4719 -9.0733C17.4992 -9.0733 17.4992 -9.0733 17.3627 -9.0733C15.6695 -9.0733 14.1948 -9.77245 12.8293 -10.0573C10.4807 -10.5752 7.88634 -10.6011 5.01886 -10.6011C3.32567 -10.5752 0.512809 -10.3421 0.157787 -10.0573C-0.197234 -9.77245 0.157787 -7.90805 0.157787 -7.90805C0.157787 -7.90805 0.813212 -7.72678 1.00438 -6.63922C1.60518 -3.50598 1.96021 -0.683482 7.7771 -0.528115C10.3169 -0.450432 12.2012 -0.916533 13.594 -1.95231C14.8229 -2.85862 15.6422 -4.28282 16.5434 -6.35438C16.7073 -6.7169 16.9531 -6.87227 17.39 -6.89816C17.5812 -6.89816 17.2808 -6.89816 17.4719 -6.89816C17.9089 -6.87227 18.182 -6.7169 18.3185 -6.35438C19.1105 -4.59355 19.8205 -3.22114 20.8037 -2.31484C22.2784 -0.968322 24.2447 -0.450432 27.1121 -0.528115C32.929 -0.683482 33.3114 -3.48009 33.8849 -6.63922C34.076 -7.72678 34.7315 -7.90805 34.7315 -7.90805C34.7315 -7.90805 35.1411 -9.77245 34.7861 -10.0573ZM13.2117 -2.70325C10.8358 -0.864744 4.80038 -0.78706 2.99796 -3.06578C2.36985 -3.71314 1.33209 -6.691 2.42447 -8.45183C3.27106 -9.82424 4.03572 -9.79834 6.63011 -9.97961C9.38836 -10.0055 12.7201 -9.61708 14.1675 -8.63309C15.9699 -7.36426 14.4133 -3.63545 13.2117 -2.70325ZM31.9186 -3.06578C30.1162 -0.78706 24.0808 -0.864744 21.7049 -2.70325C20.5033 -3.63545 18.9466 -7.39016 20.7491 -8.63309C22.1965 -9.61708 25.5282 -10.0055 28.2864 -9.97961C30.8808 -9.79834 31.6455 -9.82424 32.4921 -8.45183C33.5845 -6.691 32.574 -3.71314 31.9186 -3.06578ZM17.4719 -9.09919C17.3627 -9.09919 17.4446 -9.09919 17.4719 -9.09919V-9.09919ZM8.37791 4.26237C7.28553 5.71246 5.75621 5.79014 5.75621 5.79014C5.75621 5.79014 3.05258 6.28214 2.86142 4.62489C2.69756 3.20069 4.90962 3.69269 4.90962 3.69269C4.90962 3.69269 3.65339 2.86406 2.75218 3.43374C1.41402 4.28826 2.15137 5.86783 2.5337 6.30803C3.54415 7.52507 7.72249 8.09475 9.66145 7.99117C11.655 7.8876 13.239 7.57686 14.4679 6.80003C16.1338 5.76425 17.1442 3.97753 17.1442 3.97753V1.2845C17.1442 1.2845 16.1065 0.455874 14.6864 0.42998C12.4197 0.404086 10.2623 1.7247 8.37791 4.26237ZM31.9186 3.38195C31.0174 2.81227 29.7611 3.6409 29.7611 3.6409C29.7611 3.6409 31.9732 3.1748 31.8093 4.5731C31.6182 6.20445 28.9146 5.73835 28.9146 5.73835C28.9146 5.73835 27.3852 5.66067 26.2929 4.21058C24.3812 1.67292 22.2511 0.378191 19.9571 0.404086C18.537 0.42998 17.4992 1.25861 17.4992 1.25861V3.97753C17.4992 3.97753 18.5097 5.71246 20.1756 6.74824C21.4045 7.52507 23.6165 7.88759 24.982 7.93938C26.921 8.01707 31.1266 7.47328 32.1098 6.25624C32.5467 5.81604 33.2841 4.23647 31.9186 3.38195Z" fill="#FCFBFF"/>
<path d="M2.5129 16.6785C2.11021 16.6785 1.74107 16.5831 1.40549 16.3922C1.07737 16.1942 0.812639 15.9361 0.611293 15.6179C0.417404 15.2926 0.320459 14.9356 0.320459 14.5467L0.320459 14.0588C0.320459 14.0234 0.339102 14.0057 0.376389 14.0057H1.62921C1.65904 14.0057 1.67396 14.0234 1.67396 14.0588V14.5467C1.67396 14.78 1.75599 14.9815 1.92005 15.1512C2.08411 15.3138 2.28172 15.3952 2.5129 15.3952C2.74407 15.3952 2.94169 15.3103 3.10575 15.1406C3.26981 14.9709 3.35184 14.7729 3.35184 14.5467C3.35184 14.285 3.17287 14.0588 2.81492 13.8678C2.6956 13.8042 2.50917 13.7052 2.25562 13.5709C2.00208 13.4365 1.76344 13.3092 1.53972 13.189C1.12957 12.9628 0.823825 12.6799 0.622479 12.3405C0.42859 11.9941 0.331645 11.6052 0.331645 11.1738C0.331645 10.7779 0.432318 10.4243 0.633665 10.1132C0.835011 9.79499 1.09974 9.54398 1.42787 9.36013C1.76344 9.17629 2.12512 9.08437 2.5129 9.08437C2.90813 9.08437 3.26981 9.17982 3.59793 9.37074C3.93351 9.55458 4.19824 9.8056 4.39213 10.1238C4.59348 10.4349 4.69415 10.7849 4.69415 11.1738V12.0435C4.69415 12.0718 4.67924 12.086 4.64941 12.086H3.39659C3.36676 12.086 3.35184 12.0718 3.35184 12.0435L3.34066 11.1738C3.34066 10.9263 3.25863 10.7248 3.09457 10.5693C2.93051 10.4137 2.73662 10.3359 2.5129 10.3359C2.28172 10.3359 2.08411 10.4208 1.92005 10.5905C1.75599 10.7531 1.67396 10.9476 1.67396 11.1738C1.67396 11.4072 1.72616 11.6016 1.83056 11.7572C1.93496 11.9127 2.12512 12.0612 2.40104 12.2026C2.43833 12.2239 2.50917 12.2627 2.61357 12.3193C2.72543 12.3688 2.84475 12.4289 2.97152 12.4996C3.0983 12.5633 3.21015 12.6198 3.3071 12.6693C3.4115 12.7188 3.47489 12.7506 3.49726 12.7648C3.87012 12.9628 4.16469 13.2067 4.38095 13.4966C4.59721 13.7795 4.70534 14.1295 4.70534 14.5467C4.70534 14.9497 4.60467 15.3138 4.40332 15.6391C4.20943 15.9573 3.9447 16.2119 3.60912 16.4028C3.281 16.5866 2.91559 16.6785 2.5129 16.6785Z" fill="#FCFBFF"/>
<path d="M5.53921 16.5725C5.50193 16.5725 5.48328 16.5548 5.48328 16.5194L5.50566 9.23285C5.50566 9.20457 5.52057 9.19043 5.5504 9.19043H7.6981C8.38417 9.19043 8.92482 9.38841 9.32005 9.78439C9.72275 10.1804 9.92409 10.7177 9.92409 11.3966C9.92409 11.8986 9.81969 12.3335 9.61089 12.7011C9.40208 13.0688 9.12989 13.3517 8.79432 13.5497C8.45874 13.7476 8.09333 13.8466 7.6981 13.8466H6.84797V16.5194C6.84797 16.5548 6.82932 16.5725 6.79204 16.5725H5.53921ZM6.84797 12.5633H7.6981C7.93673 12.5633 8.1418 12.4572 8.31332 12.2451C8.4923 12.0259 8.58178 11.743 8.58178 11.3966C8.58178 11.1208 8.50348 10.8945 8.34688 10.7177C8.19028 10.541 7.97402 10.4526 7.6981 10.4526L6.84797 10.4632V12.5633Z" fill="#FCFBFF"/>
<path d="M10.7389 16.5725C10.7016 16.5725 10.683 16.5548 10.683 16.5194L10.6942 9.23285C10.6942 9.20457 10.7091 9.19043 10.7389 9.19043H11.9917C12.0216 9.19043 12.0365 9.20457 12.0365 9.23285L12.0477 16.5194C12.0477 16.5548 12.0328 16.5725 12.0029 16.5725H10.7389Z" fill="#FCFBFF"/>
<path d="M13.0875 16.5725C13.0502 16.5725 13.0316 16.5548 13.0316 16.5194L13.054 9.23285C13.054 9.20457 13.0689 9.19043 13.0987 9.19043H16.6782C16.7155 9.19043 16.7341 9.20457 16.7341 9.23285V10.4314C16.7341 10.4597 16.7192 10.4738 16.6894 10.4738H14.3963V12.1178H16.6894C16.7192 12.1178 16.7341 12.1355 16.7341 12.1708L16.7453 13.3693C16.7453 13.3976 16.7267 13.4118 16.6894 13.4118H14.3963V16.5194C14.3963 16.5548 14.3776 16.5725 14.3403 16.5725H13.0875Z" fill="#FCFBFF"/>
<path d="M17.9049 16.5725C17.8676 16.5725 17.849 16.5548 17.849 16.5194L17.8713 9.23285C17.8713 9.20457 17.8863 9.19043 17.9161 9.19043H21.4956C21.5329 9.19043 21.5515 9.20457 21.5515 9.23285V10.4314C21.5515 10.4597 21.5366 10.4738 21.5068 10.4738H19.2136V12.1178H21.5068C21.5366 12.1178 21.5515 12.1355 21.5515 12.1708L21.5627 13.3693C21.5627 13.3976 21.544 13.4118 21.5068 13.4118H19.2136V16.5194C19.2136 16.5548 19.195 16.5725 19.1577 16.5725H17.9049Z" fill="#FCFBFF"/>
<path d="M22.7223 16.5725C22.685 16.5725 22.6663 16.5548 22.6663 16.5194L22.6775 9.23285C22.6775 9.20457 22.6924 9.19043 22.7223 9.19043H23.9751C24.0049 9.19043 24.0198 9.20457 24.0198 9.23285L24.031 16.5194C24.031 16.5548 24.0161 16.5725 23.9863 16.5725H22.7223Z" fill="#FCFBFF"/>
<path d="M25.1156 16.5725C25.056 16.5725 25.0261 16.5477 25.0261 16.4982L25.0149 9.27528C25.0149 9.21871 25.0448 9.19043 25.1044 9.19043H26.1112L28.0016 13.3693L27.9457 9.27528C27.9457 9.21871 27.9792 9.19043 28.0463 9.19043H29.1537C29.1985 9.19043 29.2208 9.21871 29.2208 9.27528L29.232 16.5088C29.232 16.5513 29.2134 16.5725 29.1761 16.5725H28.1917L26.2566 12.6693L26.3349 16.4876C26.3349 16.5442 26.3013 16.5725 26.2342 16.5725H25.1156Z" fill="#FCFBFF"/>
<path d="M32.2507 16.6785C31.8481 16.6785 31.4826 16.5831 31.1545 16.3922C30.8264 16.2013 30.5617 15.9467 30.3603 15.6285C30.1664 15.3032 30.0695 14.9426 30.0695 14.5467V11.1844C30.0695 10.8026 30.1664 10.4526 30.3603 10.1344C30.5617 9.80914 30.8264 9.55105 31.1545 9.36013C31.4901 9.16922 31.8555 9.07376 32.2507 9.07376C32.6609 9.07376 33.03 9.16922 33.3582 9.36013C33.6937 9.54398 33.9585 9.79499 34.1524 10.1132C34.3462 10.4314 34.4432 10.7885 34.4432 11.1844V11.6723C34.4432 11.7006 34.4245 11.7148 34.3873 11.7148H33.1344C33.1046 11.7148 33.0897 11.7006 33.0897 11.6723V11.2693C33.0897 11.0006 33.0077 10.7779 32.8436 10.6011C32.687 10.4243 32.4894 10.3359 32.2507 10.3359C32.0345 10.3359 31.8406 10.4208 31.6691 10.5905C31.505 10.7602 31.423 10.9582 31.423 11.1844V14.5467C31.423 14.78 31.505 14.9815 31.6691 15.1512C31.8331 15.3138 32.027 15.3952 32.2507 15.3952C32.4894 15.3952 32.687 15.3138 32.8436 15.1512C33.0077 14.9886 33.0897 14.7871 33.0897 14.5467V14.0269H32.3067C32.2694 14.0269 32.2507 14.0093 32.2507 13.9739V12.786C32.2507 12.7506 32.2694 12.733 32.3067 12.733H34.3984C34.4283 12.733 34.4432 12.7506 34.4432 12.786V14.5467C34.4432 14.9426 34.3425 15.3032 34.1412 15.6285C33.9473 15.9467 33.6863 16.2013 33.3582 16.3922C33.03 16.5831 32.6609 16.6785 32.2507 16.6785Z" fill="#FCFBFF"/>
<path d="M3.8019 24.6333C3.39921 24.6333 3.03007 24.5379 2.6945 24.347C2.36637 24.149 2.10164 23.8909 1.9003 23.5727C1.70641 23.2474 1.60946 22.8903 1.60946 22.5014V22.0135C1.60946 21.9782 1.6281 21.9605 1.66539 21.9605H2.91821C2.94804 21.9605 2.96296 21.9782 2.96296 22.0135V22.5014C2.96296 22.7348 3.04499 22.9363 3.20905 23.106C3.37311 23.2686 3.57073 23.35 3.8019 23.35C4.03308 23.35 4.23069 23.2651 4.39475 23.0954C4.55882 22.9257 4.64085 22.7277 4.64085 22.5014C4.64085 22.2398 4.46187 22.0135 4.10392 21.8226C3.9846 21.759 3.79817 21.66 3.54463 21.5257C3.29108 21.3913 3.05244 21.264 2.82873 21.1438C2.41858 20.9176 2.11283 20.6347 1.91148 20.2953C1.71759 19.9488 1.62065 19.5599 1.62065 19.1286C1.62065 18.7326 1.72132 18.3791 1.92267 18.068C2.12401 17.7498 2.38875 17.4988 2.71687 17.3149C3.05244 17.1311 3.41412 17.0392 3.8019 17.0392C4.19714 17.0392 4.55882 17.1346 4.88694 17.3255C5.22251 17.5094 5.48725 17.7604 5.68114 18.0786C5.88248 18.3897 5.98316 18.7397 5.98316 19.1286V19.9983C5.98316 20.0266 5.96824 20.0408 5.93841 20.0408H4.68559C4.65576 20.0408 4.64085 20.0266 4.64085 19.9983L4.62966 19.1286C4.62966 18.8811 4.54763 18.6796 4.38357 18.524C4.21951 18.3685 4.02562 18.2907 3.8019 18.2907C3.57073 18.2907 3.37311 18.3756 3.20905 18.5453C3.04499 18.7079 2.96296 18.9023 2.96296 19.1286C2.96296 19.362 3.01516 19.5564 3.11956 19.712C3.22396 19.8675 3.41412 20.016 3.69004 20.1574C3.72733 20.1786 3.79817 20.2175 3.90257 20.2741C4.01443 20.3236 4.13375 20.3837 4.26052 20.4544C4.3873 20.518 4.49916 20.5746 4.5961 20.6241C4.7005 20.6736 4.76389 20.7054 4.78626 20.7196C5.15913 20.9176 5.45369 21.1615 5.66995 21.4514C5.88621 21.7342 5.99434 22.0843 5.99434 22.5014C5.99434 22.9045 5.89367 23.2686 5.69232 23.5939C5.49843 23.9121 5.2337 24.1666 4.89812 24.3576C4.57 24.5414 4.20459 24.6333 3.8019 24.6333Z" fill="#FCFBFF"/>
<path d="M7.83626 24.5273C7.80643 24.5273 7.79152 24.5096 7.79152 24.4742V18.4286H6.33735C6.30006 18.4286 6.28142 18.4109 6.28142 18.3756L6.2926 17.1876C6.2926 17.1594 6.30752 17.1452 6.33735 17.1452H10.588C10.6253 17.1452 10.6439 17.1594 10.6439 17.1876V18.3756C10.6439 18.4109 10.629 18.4286 10.5992 18.4286H9.13383L9.14501 24.4742C9.14501 24.5096 9.1301 24.5273 9.10027 24.5273H7.83626Z" fill="#FCFBFF"/>
<path d="M13.2546 24.6333C12.8594 24.6333 12.494 24.5379 12.1584 24.347C11.8228 24.149 11.5544 23.8873 11.353 23.5621C11.1591 23.2368 11.0622 22.8797 11.0622 22.4908L11.0845 17.1876C11.0845 17.1594 11.0995 17.1452 11.1293 17.1452H12.3821C12.4119 17.1452 12.4269 17.1594 12.4269 17.1876L12.4269 22.4908C12.4269 22.7312 12.5052 22.9363 12.6618 23.106C12.8258 23.2686 13.0234 23.35 13.2546 23.35C13.4932 23.35 13.6909 23.2686 13.8475 23.106C14.0115 22.9363 14.0936 22.7312 14.0936 22.4908L14.0936 17.1876C14.0936 17.1594 14.1085 17.1452 14.1383 17.1452H15.3911C15.421 17.1452 15.4359 17.1594 15.4359 17.1876L15.4582 22.4908C15.4582 22.8868 15.3576 23.2474 15.1562 23.5727C14.9623 23.8979 14.6976 24.156 14.362 24.347C14.0339 24.5379 13.6648 24.6333 13.2546 24.6333Z" fill="#FCFBFF"/>
<path d="M16.3974 24.5273C16.3601 24.5273 16.3415 24.5096 16.3415 24.4742L16.3639 17.1876C16.3639 17.1594 16.3788 17.1452 16.4086 17.1452L18.5004 17.1346C18.9105 17.1275 19.2834 17.2195 19.619 17.4104C19.962 17.6013 20.2342 17.8594 20.4355 18.1846C20.6369 18.5028 20.7376 18.8564 20.7376 19.2453V22.2893C20.7376 22.6994 20.6332 23.0742 20.4243 23.4136C20.2155 23.7459 19.9359 24.0111 19.5854 24.2091C19.2349 24.4071 18.8397 24.5096 18.3997 24.5167L16.3974 24.5273ZM17.7062 23.2227H18.3997C18.6756 23.2227 18.9068 23.1308 19.0932 22.9469C19.2871 22.7631 19.3841 22.5439 19.3841 22.2893V19.2347C19.3841 19.0084 19.2946 18.814 19.1156 18.6513C18.9441 18.4816 18.739 18.4003 18.5004 18.4074L17.7174 18.418L17.7062 23.2227Z" fill="#FCFBFF"/>
<path d="M21.6736 24.5273C21.6363 24.5273 21.6177 24.5096 21.6177 24.4742L21.6288 17.1876C21.6288 17.1594 21.6438 17.1452 21.6736 17.1452H22.9264C22.9562 17.1452 22.9712 17.1594 22.9712 17.1876L22.9823 24.4742C22.9823 24.5096 22.9674 24.5273 22.9376 24.5273H21.6736Z" fill="#FCFBFF"/>
<path d="M26.0357 24.6333C25.633 24.6333 25.2638 24.5379 24.9283 24.347C24.6001 24.149 24.3354 23.8909 24.1341 23.5727C23.9327 23.2474 23.832 22.8903 23.832 22.5014L23.8432 19.1392C23.8432 18.7503 23.9402 18.3968 24.1341 18.0786C24.3354 17.7604 24.6039 17.5058 24.9394 17.3149C25.275 17.124 25.6404 17.0285 26.0357 17.0285C26.4384 17.0285 26.8038 17.124 27.1319 17.3149C27.46 17.5058 27.721 17.7604 27.9149 18.0786C28.1162 18.3968 28.2169 18.7503 28.2169 19.1392L28.2281 22.5014C28.2281 22.8903 28.1274 23.2474 27.9261 23.5727C27.7322 23.8909 27.4675 24.149 27.1319 24.347C26.8038 24.5379 26.4384 24.6333 26.0357 24.6333ZM26.0357 23.35C26.2594 23.35 26.4533 23.2651 26.6173 23.0954C26.7888 22.9186 26.8746 22.7206 26.8746 22.5014L26.8634 19.1392C26.8634 18.9059 26.7851 18.7079 26.6285 18.5453C26.4719 18.3826 26.2743 18.3013 26.0357 18.3013C25.8045 18.3013 25.6069 18.3826 25.4428 18.5453C25.2787 18.7008 25.1967 18.8988 25.1967 19.1392V22.5014C25.1967 22.7348 25.2787 22.9363 25.4428 23.106C25.6069 23.2686 25.8045 23.35 26.0357 23.35Z" fill="#FCFBFF"/>
<path d="M30.9802 24.6333C30.5775 24.6333 30.2084 24.5379 29.8728 24.347C29.5447 24.149 29.2799 23.8909 29.0786 23.5727C28.8847 23.2474 28.7877 22.8903 28.7877 22.5014V22.0135C28.7877 21.9782 28.8064 21.9605 28.8437 21.9605H30.0965C30.1263 21.9605 30.1412 21.9782 30.1412 22.0135V22.5014C30.1412 22.7348 30.2233 22.9363 30.3873 23.106C30.5514 23.2686 30.749 23.35 30.9802 23.35C31.2114 23.35 31.409 23.2651 31.573 23.0954C31.7371 22.9257 31.8191 22.7277 31.8191 22.5014C31.8191 22.2398 31.6402 22.0135 31.2822 21.8226C31.1629 21.759 30.9765 21.66 30.7229 21.5257C30.4694 21.3913 30.2307 21.264 30.007 21.1438C29.5969 20.9176 29.2911 20.6347 29.0898 20.2953C28.8959 19.9488 28.7989 19.5599 28.7989 19.1286C28.7989 18.7326 28.8996 18.3791 29.101 18.068C29.3023 17.7498 29.567 17.4988 29.8952 17.3149C30.2307 17.1311 30.5924 17.0392 30.9802 17.0392C31.3754 17.0392 31.7371 17.1346 32.0652 17.3255C32.4008 17.5094 32.6655 17.7604 32.8594 18.0786C33.0608 18.3897 33.1614 18.7397 33.1614 19.1286V19.9983C33.1614 20.0266 33.1465 20.0408 33.1167 20.0408H31.8639C31.834 20.0408 31.8191 20.0266 31.8191 19.9983L31.8079 19.1286C31.8079 18.8811 31.7259 18.6796 31.5619 18.524C31.3978 18.3685 31.2039 18.2907 30.9802 18.2907C30.749 18.2907 30.5514 18.3756 30.3873 18.5453C30.2233 18.7079 30.1412 18.9023 30.1412 19.1286C30.1412 19.362 30.1934 19.5564 30.2978 19.712C30.4022 19.8675 30.5924 20.016 30.8683 20.1574C30.9056 20.1786 30.9765 20.2175 31.0809 20.2741C31.1927 20.3236 31.312 20.3837 31.4388 20.4544C31.5656 20.518 31.6774 20.5746 31.7744 20.6241C31.8788 20.6736 31.9422 20.7054 31.9645 20.7196C32.3374 20.9176 32.632 21.1615 32.8482 21.4514C33.0645 21.7342 33.1726 22.0843 33.1726 22.5014C33.1726 22.9045 33.072 23.2686 32.8706 23.5939C32.6767 23.9121 32.412 24.1666 32.0764 24.3576C31.7483 24.5414 31.3829 24.6333 30.9802 24.6333Z" fill="#FCFBFF"/>
</g>
<defs>
<clipPath id="clip0_0_1565">
<rect width="34.956" height="26.0138" fill="white"/>
</clipPath>
</defs>
</svg>
