<svg width="69" height="69" viewBox="0 0 69 69" fill="none" xmlns="http://www.w3.org/2000/svg">
<path d="M34.2603 58.8848C47.86 58.8848 58.8848 47.86 58.8848 34.2603C58.8848 20.6605 47.86 9.63574 34.2603 9.63574C20.6605 9.63574 9.63574 20.6605 9.63574 34.2603C9.63574 47.86 20.6605 58.8848 34.2603 58.8848Z" fill="#E59A9A"/>
<path d="M52.3967 17.6077L39.6134 24.9886V10.2257C37.8897 9.84344 36.0996 9.63574 34.2602 9.63574C32.4209 9.63574 30.6308 9.84344 28.9071 10.2257V24.9886L16.1237 17.6077C13.7095 20.235 11.8583 23.388 10.7642 26.8761L23.5539 34.2603L10.7642 41.6444C11.8594 45.1325 13.7105 48.2845 16.1237 50.9129L28.9071 43.5319V58.2938C30.6308 58.6771 32.4209 58.8848 34.2602 58.8848C36.0996 58.8848 37.8897 58.6771 39.6134 58.2949V43.5319L52.3967 50.9129C54.811 48.2855 56.6621 45.1325 57.7563 41.6444L44.9665 34.2603L57.7563 26.8761C56.6621 23.388 54.811 20.235 52.3967 17.6077Z" fill="#602441"/>
<path d="M34.2603 52.9082C44.5592 52.9082 52.9082 44.5592 52.9082 34.2603C52.9082 23.9613 44.5592 15.6123 34.2603 15.6123C23.9613 15.6123 15.6123 23.9613 15.6123 34.2603C15.6123 44.5592 23.9613 52.9082 34.2603 52.9082Z" fill="#E59A9A"/>
<path d="M34.2603 47.704C41.6851 47.704 47.7042 41.685 47.7042 34.2602C47.7042 26.8353 41.6851 20.8163 34.2603 20.8163C26.8354 20.8163 20.8164 26.8353 20.8164 34.2602C20.8164 41.685 26.8354 47.704 34.2603 47.704Z" fill="#602441"/>
</svg>
