<svg width="69" height="69" viewBox="0 0 69 69" fill="none" xmlns="http://www.w3.org/2000/svg">
<path d="M34.2603 58.8847C47.86 58.8847 58.8848 47.8599 58.8848 34.2601C58.8848 20.6604 47.86 9.63562 34.2603 9.63562C20.6605 9.63562 9.63574 20.6604 9.63574 34.2601C9.63574 47.8599 20.6605 58.8847 34.2603 58.8847Z" fill="#37ECA0"/>
<path d="M52.3967 17.6075L39.6134 24.9885V10.2255C37.8897 9.84332 36.0996 9.63562 34.2602 9.63562C32.4209 9.63562 30.6308 9.84332 28.9071 10.2255V24.9885L16.1237 17.6075C13.7095 20.2349 11.8583 23.3879 10.7642 26.876L23.5539 34.2601L10.7642 41.6443C11.8594 45.1324 13.7105 48.2843 16.1237 50.9127L28.9071 43.5318V58.2937C30.6308 58.677 32.4209 58.8847 34.2602 58.8847C36.0996 58.8847 37.8897 58.677 39.6134 58.2947V43.5318L52.3967 50.9127C54.811 48.2854 56.6621 45.1324 57.7563 41.6443L44.9665 34.2601L57.7563 26.876C56.6621 23.3879 54.811 20.2349 52.3967 17.6075Z" fill="#23554C"/>
<path d="M34.2603 52.9081C44.5592 52.9081 52.9082 44.5591 52.9082 34.2601C52.9082 23.9612 44.5592 15.6122 34.2603 15.6122C23.9613 15.6122 15.6123 23.9612 15.6123 34.2601C15.6123 44.5591 23.9613 52.9081 34.2603 52.9081Z" fill="#37ECA0"/>
<path d="M34.2603 47.704C41.6851 47.704 47.7042 41.685 47.7042 34.2602C47.7042 26.8353 41.6851 20.8163 34.2603 20.8163C26.8354 20.8163 20.8164 26.8353 20.8164 34.2602C20.8164 41.685 26.8354 47.704 34.2603 47.704Z" fill="#23554C"/>
</svg>
