<svg width="39" height="39" viewBox="0 0 39 39" fill="none" xmlns="http://www.w3.org/2000/svg">
<g clip-path="url(#clip0_0_1240)">
<path d="M37.1432 22.3883C37.1432 27.1881 33.2499 31.0813 28.4501 31.0813C25.1959 31.0813 22.3525 29.2879 20.8655 26.6338C20.8588 26.5946 20.8588 26.562 20.8588 26.5294C20.8459 26.536 20.8262 26.5424 20.8133 26.5424C20.8329 26.575 20.8459 26.6012 20.8655 26.6338C21.0155 30.2011 21.8306 35.4048 25.0066 38.6397H13.6332C16.8155 35.3985 17.6372 30.1748 17.7873 26.6076C17.8328 26.5357 17.8721 26.4575 17.911 26.3793C17.8718 26.3664 17.8328 26.3597 17.7936 26.3467C17.7936 26.4316 17.7936 26.5164 17.7873 26.6076C16.3069 29.2749 13.4569 31.0813 10.1897 31.0813C5.38986 31.0813 1.49658 27.1881 1.49658 22.3883C1.49658 17.5884 5.38986 13.6952 10.1897 13.6952C10.9658 13.6952 11.7157 13.7996 12.4332 13.9886C11.2985 12.5278 10.6268 10.6888 10.6268 8.69309C10.6268 3.89328 14.5201 0 19.3199 0C24.1197 0 28.013 3.89328 28.013 8.69309C28.013 10.6888 27.3413 12.5278 26.2066 13.9886C26.9238 13.7993 27.674 13.6952 28.4501 13.6952C33.2499 13.6952 37.1432 17.5884 37.1432 22.3883Z" fill="#231F20"/>
</g>
<defs>
<clipPath id="clip0_0_1240">
<rect width="38.64" height="38.64" fill="white"/>
</clipPath>
</defs>
</svg>
