<svg width="39" height="39" viewBox="0 0 39 39" fill="none" xmlns="http://www.w3.org/2000/svg">
<g clip-path="url(#clip0_0_1318)">
<path d="M27.9508 2.06898C26.0541 2.06898 24.1897 2.57372 22.5587 3.52402C21.449 4.17366 20.4716 5.01106 19.6538 6.01328L19.3187 6.42504L18.9839 6.01328C18.1673 5.01106 17.1902 4.17366 16.0802 3.52402C14.4495 2.57372 12.5845 2.06898 10.6872 2.06898C4.8939 2.06898 0.203064 6.74322 0.00654311 12.7101C-0.0930756 15.7041 0.866283 18.7394 2.85594 21.7367C4.42388 24.0962 19.3187 37.0116 19.3187 37.0116C19.3187 37.0116 34.2147 24.0941 35.7814 21.7367C37.7732 18.7391 38.7308 15.7029 38.6327 12.7101C38.4349 6.74322 33.7435 2.06898 27.9508 2.06898Z" fill="#E6315F"/>
</g>
<defs>
<clipPath id="clip0_0_1318">
<rect width="38.64" height="38.64" fill="white" transform="translate(0 0.220306)"/>
</clipPath>
</defs>
</svg>
