<svg width="37" height="37" viewBox="0 0 37 37" fill="none" xmlns="http://www.w3.org/2000/svg">
<g clip-path="url(#clip0_0_1487)">
<path d="M33.3914 20.7431C33.2406 25.403 29.5837 29.0509 25.057 29.0509C23.5748 29.0509 22.1189 28.6516 20.8497 27.9148C20.4326 27.6752 20.033 27.391 19.6692 27.0804C19.8644 30.0717 20.6367 34.0835 23.1485 36.6397H13.4916C16.0034 34.0746 16.7846 30.0625 16.9798 27.0715C16.6071 27.391 16.2164 27.6663 15.7905 27.9148C14.5212 28.6516 13.0657 29.0509 11.5832 29.0509C7.06529 29.0509 3.39957 25.403 3.24872 20.7431C3.16885 18.4087 3.91453 16.0389 5.46773 13.6956C6.69259 11.8582 18.3201 0 18.3201 0C18.3201 0 29.9475 11.8582 31.1724 13.6956C32.7256 16.0389 33.4713 18.4087 33.3914 20.7431Z" fill="#231F20"/>
</g>
<defs>
<clipPath id="clip0_0_1487">
<rect width="36.64" height="36.64" fill="white"/>
</clipPath>
</defs>
</svg>
