<svg xmlns="http://www.w3.org/2000/svg" width="256" height="256" viewBox="0 0 39 39">
  <path d="M37.14 22.39c0 4.8-3.89 8.69-8.69 8.69-2.45 0-4.66-.93-6.34-2.45.02.6.02 1.18.02 1.76.15 3.57.97 7.58 4.14 10.25H13.63c3.18-2.64 4.03-6.64 4.18-10.18.02-.6.02-1.2 0-1.82-1.67 1.52-3.89 2.44-6.34 2.44-4.8 0-8.69-3.89-8.69-8.69s3.89-8.69 8.69-8.69c.78 0 1.53.1 2.24.3-1.14-1.46-1.81-3.3-1.81-5.3 0-4.8 3.89-8.69 8.69-8.69s8.69 3.89 8.69 8.69c0 2-0.67 3.84-1.81 5.3.72-.2 1.46-.3 2.24-.3 4.8 0 8.69 3.89 8.69 8.69z" fill="#231f20"/>
</svg>
