<svg xmlns="http://www.w3.org/2000/svg" width="128" height="128" viewBox="0 0 24 24">
<path d="M21.4498 5.88749C20.6248 5.98124 19.4248 6.52499 17.8686 7.49999C16.1436 8.58749 14.9811 9.22499 14.3998 9.39374C14.4936 10.0312 14.5498 10.9312 14.5311 12.0937C14.5123 13.6875 14.5123 14.625 14.5123 14.9437C14.5873 14.9812 15.7686 15.5625 18.0373 16.65C19.8748 17.5312 21.0373 18.0187 21.5811 18.1125C22.9686 18.3562 23.7561 17.6812 23.9436 16.0875C24.0186 15.4875 24.0186 14.4562 23.9623 13.0125C23.8873 11.0437 23.8311 9.88124 23.8311 9.50624C23.8311 8.13749 23.7373 7.25624 23.5873 6.84374C23.2686 6.07499 22.5561 5.75624 21.4498 5.88749ZM13.6123 8.83124H10.3311C10.3311 8.83124 10.0498 10.7062 10.0498 12C10.0498 13.3125 10.3311 15.1875 10.3311 15.1875H13.6123C13.6123 15.1875 13.8936 13.2937 13.8936 12C13.8936 10.7062 13.7998 9.63749 13.6123 8.83124ZM0.0185947 10.875C0.0185947 14.1375 0.0185966 15.6937 -0.000152588 15.5625C0.149847 17.2312 0.731094 18.1125 1.72484 18.2437C2.32484 18.3187 3.0561 18.1687 3.91859 17.775C4.1811 17.6437 4.51859 17.475 4.9311 17.25C5.3811 17.0062 5.66235 16.8375 5.81235 16.7812C6.14985 16.6125 6.76859 16.2937 7.68735 15.8437C8.4186 15.45 9.0186 15.1687 9.44985 14.9625V9.50624C6.93735 7.94999 4.7811 6.78749 2.96235 5.99999C1.6686 5.43749 0.806095 5.73749 0.374846 6.89999C0.131096 7.61249 0.0185947 8.92499 0.0185947 10.875Z" fill="white"/>
</svg>
