<svg width="78" height="48" viewBox="0 0 78 48" fill="none" xmlns="http://www.w3.org/2000/svg">
<g filter="url(#filter0_d_651_4642)">
<g clip-path="url(#clip0_651_4642)">
<path d="M63.757 -10.3047C63.2491 -10.7098 59.1866 -11.0413 56.8038 -11.0781C52.6632 -11.115 48.9913 -11.0413 45.5929 -10.3047C43.6398 -9.89957 41.5304 -8.90515 39.0695 -8.90515C39.0304 -8.90515 39.0304 -8.90515 38.9913 -8.90515C39.0304 -8.90515 39.0304 -8.90515 38.8351 -8.90515C36.4132 -8.90515 34.3038 -9.89957 32.3507 -10.3047C28.9913 -11.0413 25.2804 -11.0781 21.1788 -11.0781C18.7569 -11.0413 14.7335 -10.7098 14.2257 -10.3047C13.7179 -9.89957 14.2257 -7.24778 14.2257 -7.24778C14.2257 -7.24778 15.1632 -6.98997 15.4366 -5.44309C16.296 -0.98662 16.8038 3.02789 25.1241 3.24887C28.7569 3.35936 31.4523 2.69641 33.4444 1.2232C35.2023 -0.0658617 36.3741 -2.09153 37.6632 -5.03796C37.8976 -5.55359 38.2491 -5.77457 38.8741 -5.8114C39.1476 -5.8114 38.7179 -5.8114 38.9913 -5.8114C39.6163 -5.77457 40.007 -5.55359 40.2023 -5.03796C41.3351 -2.5335 42.3507 -0.581488 43.757 0.707575C45.8663 2.62275 48.6788 3.35936 52.7804 3.24887C61.1007 3.02789 61.6476 -0.94979 62.4679 -5.44309C62.7413 -6.98997 63.6788 -7.24778 63.6788 -7.24778C63.6788 -7.24778 64.2648 -9.89957 63.757 -10.3047ZM32.8976 0.15512C29.4991 2.77007 20.8663 2.88057 18.2882 -0.360504C17.3898 -1.28126 15.9054 -5.51675 17.4679 -8.02122C18.6788 -9.97323 19.7726 -9.9364 23.4835 -10.1942C27.4288 -10.231 32.1945 -9.67859 34.2648 -8.27903C36.8429 -6.47434 34.6163 -1.17077 32.8976 0.15512ZM59.6554 -0.360504C57.0773 2.88057 48.4445 2.77007 45.046 0.15512C43.3273 -1.17077 41.1007 -6.51117 43.6788 -8.27903C45.7491 -9.67859 50.5148 -10.231 54.4601 -10.1942C58.171 -9.9364 59.2648 -9.97323 60.4757 -8.02122C62.0382 -5.51675 60.5929 -1.28126 59.6554 -0.360504ZM38.9913 -8.94198C38.8351 -8.94198 38.9523 -8.94198 38.9913 -8.94198V-8.94198ZM25.9835 10.0625C24.421 12.125 22.2335 12.2355 22.2335 12.2355C22.2335 12.2355 18.3663 12.9353 18.0929 10.5781C17.8585 8.55244 21.0226 9.25222 21.0226 9.25222C21.0226 9.25222 19.2257 8.07365 17.9366 8.88391C16.0226 10.0993 17.0773 12.346 17.6241 12.9721C19.0694 14.7031 25.046 15.5134 27.8194 15.3661C30.671 15.2187 32.9366 14.7768 34.6944 13.6719C37.0773 12.1986 38.5226 9.65735 38.5226 9.65735V5.82699C38.5226 5.82699 37.0382 4.64842 35.0069 4.61159C31.7648 4.57476 28.6788 6.45311 25.9835 10.0625ZM59.6554 8.81025C58.3663 7.99998 56.5695 9.17856 56.5695 9.17856C56.5695 9.17856 59.7335 8.51561 59.4991 10.5044C59.2257 12.8248 55.3585 12.1618 55.3585 12.1618C55.3585 12.1618 53.171 12.0513 51.6085 9.98883C48.8741 6.37945 45.8273 4.53793 42.546 4.57476C40.5148 4.61159 39.0304 5.79017 39.0304 5.79017V9.65735C39.0304 9.65735 40.4757 12.125 42.8585 13.5982C44.6163 14.7031 47.7804 15.2187 49.7335 15.2924C52.507 15.4029 58.5226 14.6295 59.9288 12.8984C60.5538 12.2723 61.6085 10.0257 59.6554 8.81025Z" fill="url(#paint0_linear_651_4642)"/>
<path d="M17.5944 27.7223C17.0184 27.7223 16.4904 27.5865 16.0104 27.315C15.541 27.0334 15.1624 26.6663 14.8744 26.2137C14.597 25.7511 14.4584 25.2432 14.4584 24.6901V23.9961C14.4584 23.9458 14.485 23.9207 14.5384 23.9207H16.3304C16.373 23.9207 16.3944 23.9458 16.3944 23.9961V24.6901C16.3944 25.022 16.5117 25.3086 16.7464 25.55C16.981 25.7813 17.2637 25.8969 17.5944 25.8969C17.925 25.8969 18.2077 25.7762 18.4424 25.5349C18.677 25.2935 18.7944 25.0119 18.7944 24.6901C18.7944 24.318 18.5384 23.9961 18.0264 23.7246C17.8557 23.6341 17.589 23.4933 17.2264 23.3022C16.8637 23.1111 16.5224 22.9301 16.2024 22.7591C15.6157 22.4373 15.1784 22.035 14.8904 21.5522C14.613 21.0594 14.4744 20.5063 14.4744 19.8928C14.4744 19.3296 14.6184 18.8268 14.9064 18.3842C15.1944 17.9317 15.573 17.5746 16.0424 17.3132C16.5224 17.0517 17.0397 16.9209 17.5944 16.9209C18.1597 16.9209 18.677 17.0567 19.1464 17.3282C19.6264 17.5897 20.005 17.9468 20.2824 18.3993C20.5704 18.8418 20.7144 19.3397 20.7144 19.8928V21.1298C20.7144 21.1701 20.693 21.1902 20.6504 21.1902H18.8584C18.8157 21.1902 18.7944 21.1701 18.7944 21.1298L18.7784 19.8928C18.7784 19.5408 18.661 19.2542 18.4264 19.0329C18.1917 18.8117 17.9144 18.701 17.5944 18.701C17.2637 18.701 16.981 18.8217 16.7464 19.0631C16.5117 19.2944 16.3944 19.571 16.3944 19.8928C16.3944 20.2247 16.469 20.5013 16.6184 20.7225C16.7677 20.9438 17.0397 21.155 17.4344 21.3561C17.4877 21.3863 17.589 21.4416 17.7384 21.5221C17.8984 21.5925 18.069 21.678 18.2504 21.7785C18.4317 21.869 18.5917 21.9495 18.7304 22.0199C18.8797 22.0903 18.9704 22.1356 19.0024 22.1557C19.5357 22.4373 19.957 22.7842 20.2664 23.1966C20.5757 23.5989 20.7304 24.0967 20.7304 24.6901C20.7304 25.2633 20.5864 25.7813 20.2984 26.2439C20.021 26.6965 19.6424 27.0585 19.1624 27.3301C18.693 27.5916 18.1704 27.7223 17.5944 27.7223Z" fill="url(#paint1_linear_651_4642)"/>
<path d="M21.9231 27.5714C21.8698 27.5714 21.8431 27.5463 21.8431 27.496L21.8751 17.1321C21.8751 17.0919 21.8965 17.0718 21.9391 17.0718H25.0111C25.9925 17.0718 26.7658 17.3534 27.3311 17.9166C27.9071 18.4798 28.1951 19.2441 28.1951 20.2096C28.1951 20.9237 28.0458 21.5422 27.7471 22.0652C27.4485 22.5881 27.0591 22.9904 26.5791 23.272C26.0991 23.5536 25.5765 23.6944 25.0111 23.6944H23.7951V27.496C23.7951 27.5463 23.7685 27.5714 23.7151 27.5714H21.9231ZM23.7951 21.869H25.0111C25.3525 21.869 25.6458 21.7182 25.8911 21.4165C26.1471 21.1047 26.2751 20.7024 26.2751 20.2096C26.2751 19.8174 26.1631 19.4956 25.9391 19.2441C25.7151 18.9927 25.4058 18.867 25.0111 18.867L23.7951 18.8821V21.869Z" fill="url(#paint2_linear_651_4642)"/>
<path d="M29.3606 27.5714C29.3073 27.5714 29.2806 27.5463 29.2806 27.496L29.2966 17.1321C29.2966 17.0919 29.318 17.0718 29.3606 17.0718H31.1526C31.1953 17.0718 31.2166 17.0919 31.2166 17.1321L31.2326 27.496C31.2326 27.5463 31.2113 27.5714 31.1686 27.5714H29.3606Z" fill="url(#paint3_linear_651_4642)"/>
<path d="M32.72 27.5714C32.6667 27.5714 32.64 27.5463 32.64 27.496L32.672 17.1321C32.672 17.0919 32.6933 17.0718 32.736 17.0718H37.856C37.9093 17.0718 37.936 17.0919 37.936 17.1321V18.8368C37.936 18.877 37.9147 18.8972 37.872 18.8972H34.592V21.2354H37.872C37.9147 21.2354 37.936 21.2606 37.936 21.3109L37.952 23.0156C37.952 23.0558 37.9253 23.0759 37.872 23.0759H34.592V27.496C34.592 27.5463 34.5653 27.5714 34.512 27.5714H32.72Z" fill="url(#paint4_linear_651_4642)"/>
<path d="M39.6106 27.5714C39.5573 27.5714 39.5306 27.5463 39.5306 27.496L39.5626 17.1321C39.5626 17.0919 39.584 17.0718 39.6266 17.0718H44.7466C44.8 17.0718 44.8266 17.0919 44.8266 17.1321V18.8368C44.8266 18.877 44.8053 18.8972 44.7626 18.8972H41.4826V21.2354H44.7626C44.8053 21.2354 44.8266 21.2606 44.8266 21.3109L44.8426 23.0156C44.8426 23.0558 44.816 23.0759 44.7626 23.0759H41.4826V27.496C41.4826 27.5463 41.456 27.5714 41.4026 27.5714H39.6106Z" fill="url(#paint5_linear_651_4642)"/>
<path d="M46.5013 27.5714C46.4479 27.5714 46.4213 27.5463 46.4213 27.496L46.4373 17.1321C46.4373 17.0919 46.4586 17.0718 46.5013 17.0718H48.2933C48.3359 17.0718 48.3573 17.0919 48.3573 17.1321L48.3733 27.496C48.3733 27.5463 48.3519 27.5714 48.3093 27.5714H46.5013Z" fill="url(#paint6_linear_651_4642)"/>
<path d="M49.9246 27.5714C49.8393 27.5714 49.7966 27.5362 49.7966 27.4658L49.7806 17.1925C49.7806 17.112 49.8233 17.0718 49.9086 17.0718H51.3486L54.0526 23.0156L53.9726 17.1925C53.9726 17.112 54.0206 17.0718 54.1166 17.0718H55.7006C55.7646 17.0718 55.7966 17.112 55.7966 17.1925L55.8126 27.4809C55.8126 27.5413 55.786 27.5714 55.7326 27.5714H54.3246L51.5566 22.0199L51.6686 27.4508C51.6686 27.5312 51.6206 27.5714 51.5246 27.5714H49.9246Z" fill="url(#paint7_linear_651_4642)"/>
<path d="M60.1305 27.7223C59.5545 27.7223 59.0318 27.5865 58.5625 27.315C58.0932 27.0434 57.7145 26.6814 57.4265 26.2288C57.1492 25.7662 57.0105 25.2533 57.0105 24.6901V19.9079C57.0105 19.3648 57.1492 18.867 57.4265 18.4144C57.7145 17.9518 58.0932 17.5847 58.5625 17.3132C59.0425 17.0416 59.5652 16.9058 60.1305 16.9058C60.7172 16.9058 61.2452 17.0416 61.7145 17.3132C62.1945 17.5746 62.5732 17.9317 62.8505 18.3842C63.1278 18.8368 63.2665 19.3447 63.2665 19.9079V20.6018C63.2665 20.6421 63.2398 20.6622 63.1865 20.6622H61.3945C61.3518 20.6622 61.3305 20.6421 61.3305 20.6018V20.0286C61.3305 19.6464 61.2132 19.3296 60.9785 19.0782C60.7545 18.8268 60.4718 18.701 60.1305 18.701C59.8212 18.701 59.5438 18.8217 59.2985 19.0631C59.0638 19.3045 58.9465 19.5861 58.9465 19.9079V24.6901C58.9465 25.022 59.0638 25.3086 59.2985 25.55C59.5332 25.7813 59.8105 25.8969 60.1305 25.8969C60.4718 25.8969 60.7545 25.7813 60.9785 25.55C61.2132 25.3186 61.3305 25.032 61.3305 24.6901V23.9509H60.2105C60.1572 23.9509 60.1305 23.9257 60.1305 23.8754V22.1858C60.1305 22.1356 60.1572 22.1104 60.2105 22.1104H63.2025C63.2452 22.1104 63.2665 22.1356 63.2665 22.1858V24.6901C63.2665 25.2533 63.1225 25.7662 62.8345 26.2288C62.5572 26.6814 62.1838 27.0434 61.7145 27.315C61.2452 27.5865 60.7172 27.7223 60.1305 27.7223Z" fill="url(#paint8_linear_651_4642)"/>
<path d="M19.4381 39.0366C18.8621 39.0366 18.3341 38.9008 17.8541 38.6293C17.3848 38.3477 17.0061 37.9806 16.7181 37.528C16.4408 37.0654 16.3021 36.5575 16.3021 36.0044V35.3104C16.3021 35.2601 16.3288 35.235 16.3821 35.235H18.1741C18.2168 35.235 18.2381 35.2601 18.2381 35.3104V36.0044C18.2381 36.3362 18.3555 36.6229 18.5901 36.8642C18.8248 37.0956 19.1075 37.2112 19.4381 37.2112C19.7688 37.2112 20.0515 37.0905 20.2861 36.8492C20.5208 36.6078 20.6381 36.3262 20.6381 36.0044C20.6381 35.6322 20.3821 35.3104 19.8701 35.0389C19.6995 34.9484 19.4328 34.8076 19.0701 34.6165C18.7075 34.4254 18.3661 34.2444 18.0461 34.0734C17.4595 33.7516 17.0221 33.3493 16.7341 32.8665C16.4568 32.3737 16.3181 31.8206 16.3181 31.2071C16.3181 30.6439 16.4621 30.141 16.7501 29.6985C17.0381 29.246 17.4168 28.8889 17.8861 28.6274C18.3661 28.366 18.8835 28.2352 19.4381 28.2352C20.0035 28.2352 20.5208 28.371 20.9901 28.6425C21.4701 28.904 21.8488 29.261 22.1261 29.7136C22.4141 30.1561 22.5581 30.654 22.5581 31.2071V32.4441C22.5581 32.4844 22.5368 32.5045 22.4941 32.5045H20.7021C20.6595 32.5045 20.6381 32.4844 20.6381 32.4441L20.6221 31.2071C20.6221 30.8551 20.5048 30.5685 20.2701 30.3472C20.0355 30.126 19.7581 30.0153 19.4381 30.0153C19.1075 30.0153 18.8248 30.136 18.5901 30.3774C18.3555 30.6087 18.2381 30.8853 18.2381 31.2071C18.2381 31.539 18.3128 31.8156 18.4621 32.0368C18.6115 32.2581 18.8835 32.4693 19.2781 32.6704C19.3315 32.7006 19.4328 32.7559 19.5821 32.8364C19.7421 32.9068 19.9128 32.9922 20.0941 33.0928C20.2755 33.1833 20.4355 33.2638 20.5741 33.3342C20.7235 33.4046 20.8141 33.4498 20.8461 33.47C21.3795 33.7516 21.8008 34.0985 22.1101 34.5109C22.4195 34.9132 22.5741 35.411 22.5741 36.0044C22.5741 36.5776 22.4301 37.0956 22.1421 37.5582C21.8648 38.0108 21.4861 38.3728 21.0061 38.6444C20.5368 38.9058 20.0141 39.0366 19.4381 39.0366Z" fill="url(#paint9_linear_651_4642)"/>
<path d="M25.2088 38.8857C25.1661 38.8857 25.1448 38.8606 25.1448 38.8103V30.2114H23.0648C23.0114 30.2114 22.9848 30.1863 22.9848 30.136L23.0008 28.4464C23.0008 28.4062 23.0221 28.3861 23.0648 28.3861H29.1448C29.1981 28.3861 29.2248 28.4062 29.2248 28.4464V30.136C29.2248 30.1863 29.2034 30.2114 29.1608 30.2114H27.0648L27.0808 38.8103C27.0808 38.8606 27.0594 38.8857 27.0168 38.8857H25.2088Z" fill="url(#paint10_linear_651_4642)"/>
<path d="M32.959 39.0366C32.3937 39.0366 31.871 38.9008 31.391 38.6293C30.911 38.3477 30.527 37.9756 30.239 37.5129C29.9617 37.0503 29.823 36.5424 29.823 35.9893L29.855 28.4464C29.855 28.4062 29.8763 28.3861 29.919 28.3861H31.711C31.7537 28.3861 31.775 28.4062 31.775 28.4464V35.9893C31.775 36.3312 31.887 36.6229 32.111 36.8642C32.3457 37.0956 32.6283 37.2112 32.959 37.2112C33.3003 37.2112 33.583 37.0956 33.807 36.8642C34.0417 36.6229 34.159 36.3312 34.159 35.9893V28.4464C34.159 28.4062 34.1803 28.3861 34.223 28.3861H36.015C36.0577 28.3861 36.079 28.4062 36.079 28.4464L36.111 35.9893C36.111 36.5525 35.967 37.0654 35.679 37.528C35.4017 37.9906 35.023 38.3577 34.543 38.6293C34.0737 38.9008 33.5457 39.0366 32.959 39.0366Z" fill="url(#paint11_linear_651_4642)"/>
<path d="M37.4544 38.8857C37.401 38.8857 37.3744 38.8606 37.3744 38.8103L37.4064 28.4464C37.4064 28.4062 37.4277 28.3861 37.4704 28.3861L40.4624 28.371C41.049 28.3609 41.5824 28.4917 42.0624 28.7632C42.553 29.0348 42.9424 29.4018 43.2304 29.8645C43.5184 30.317 43.6624 30.8199 43.6624 31.373V35.7026C43.6624 36.286 43.513 36.819 43.2144 37.3017C42.9157 37.7744 42.5157 38.1516 42.0144 38.4332C41.513 38.7148 40.9477 38.8606 40.3184 38.8706L37.4544 38.8857ZM39.3264 37.0302H40.3184C40.713 37.0302 41.0437 36.8994 41.3104 36.638C41.5877 36.3765 41.7264 36.0647 41.7264 35.7026V31.358C41.7264 31.0361 41.5984 30.7596 41.3424 30.5282C41.097 30.2869 40.8037 30.1712 40.4624 30.1813L39.3424 30.1964L39.3264 37.0302Z" fill="url(#paint12_linear_651_4642)"/>
<path d="M45.0013 38.8857C44.9479 38.8857 44.9213 38.8606 44.9213 38.8103L44.9373 28.4464C44.9373 28.4062 44.9586 28.3861 45.0013 28.3861H46.7933C46.8359 28.3861 46.8573 28.4062 46.8573 28.4464L46.8733 38.8103C46.8733 38.8606 46.8519 38.8857 46.8093 38.8857H45.0013Z" fill="url(#paint13_linear_651_4642)"/>
<path d="M51.2406 39.0366C50.6646 39.0366 50.1366 38.9008 49.6566 38.6293C49.1873 38.3477 48.8086 37.9806 48.5206 37.528C48.2326 37.0654 48.0886 36.5575 48.0886 36.0044L48.1046 31.2222C48.1046 30.669 48.2433 30.1662 48.5206 29.7136C48.8086 29.261 49.1926 28.899 49.6726 28.6274C50.1526 28.3559 50.6753 28.2201 51.2406 28.2201C51.8166 28.2201 52.3393 28.3559 52.8086 28.6274C53.278 28.899 53.6513 29.261 53.9286 29.7136C54.2166 30.1662 54.3606 30.669 54.3606 31.2222L54.3766 36.0044C54.3766 36.5575 54.2326 37.0654 53.9446 37.528C53.6673 37.9806 53.2886 38.3477 52.8086 38.6293C52.3393 38.9008 51.8166 39.0366 51.2406 39.0366ZM51.2406 37.2112C51.5606 37.2112 51.838 37.0905 52.0726 36.8492C52.318 36.5977 52.4406 36.3161 52.4406 36.0044L52.4246 31.2222C52.4246 30.8903 52.3126 30.6087 52.0886 30.3774C51.8646 30.1461 51.582 30.0304 51.2406 30.0304C50.91 30.0304 50.6273 30.1461 50.3926 30.3774C50.158 30.5986 50.0406 30.8802 50.0406 31.2222V36.0044C50.0406 36.3362 50.158 36.6229 50.3926 36.8642C50.6273 37.0956 50.91 37.2112 51.2406 37.2112Z" fill="url(#paint14_linear_651_4642)"/>
<path d="M58.3131 39.0366C57.7371 39.0366 57.2091 38.9008 56.7291 38.6293C56.2598 38.3477 55.8811 37.9806 55.5931 37.528C55.3158 37.0654 55.1771 36.5575 55.1771 36.0044V35.3104C55.1771 35.2601 55.2038 35.235 55.2571 35.235H57.0491C57.0918 35.235 57.1131 35.2601 57.1131 35.3104V36.0044C57.1131 36.3362 57.2305 36.6229 57.4651 36.8642C57.6998 37.0956 57.9825 37.2112 58.3131 37.2112C58.6438 37.2112 58.9265 37.0905 59.1611 36.8492C59.3958 36.6078 59.5131 36.3262 59.5131 36.0044C59.5131 35.6322 59.2571 35.3104 58.7451 35.0389C58.5745 34.9484 58.3078 34.8076 57.9451 34.6165C57.5825 34.4254 57.2411 34.2444 56.9211 34.0734C56.3345 33.7516 55.8971 33.3493 55.6091 32.8665C55.3318 32.3737 55.1931 31.8206 55.1931 31.2071C55.1931 30.6439 55.3371 30.141 55.6251 29.6985C55.9131 29.246 56.2918 28.8889 56.7611 28.6274C57.2411 28.366 57.7585 28.2352 58.3131 28.2352C58.8785 28.2352 59.3958 28.371 59.8651 28.6425C60.3451 28.904 60.7238 29.261 61.0011 29.7136C61.2891 30.1561 61.4331 30.654 61.4331 31.2071V32.4441C61.4331 32.4844 61.4118 32.5045 61.3691 32.5045H59.5771C59.5345 32.5045 59.5131 32.4844 59.5131 32.4441L59.4971 31.2071C59.4971 30.8551 59.3798 30.5685 59.1451 30.3472C58.9105 30.126 58.6331 30.0153 58.3131 30.0153C57.9825 30.0153 57.6998 30.136 57.4651 30.3774C57.2305 30.6087 57.1131 30.8853 57.1131 31.2071C57.1131 31.539 57.1878 31.8156 57.3371 32.0368C57.4865 32.2581 57.7585 32.4693 58.1531 32.6704C58.2065 32.7006 58.3078 32.7559 58.4571 32.8364C58.6171 32.9068 58.7878 32.9922 58.9691 33.0928C59.1505 33.1833 59.3105 33.2638 59.4491 33.3342C59.5985 33.4046 59.6891 33.4498 59.7211 33.47C60.2545 33.7516 60.6758 34.0985 60.9851 34.5109C61.2945 34.9132 61.4491 35.411 61.4491 36.0044C61.4491 36.5776 61.3051 37.0956 61.0171 37.5582C60.7398 38.0108 60.3611 38.3728 59.8811 38.6444C59.4118 38.9058 58.8891 39.0366 58.3131 39.0366Z" fill="url(#paint15_linear_651_4642)"/>
</g>
</g>
<defs>
<filter id="filter0_d_651_4642" x="0" y="0" width="78" height="65" filterUnits="userSpaceOnUse" color-interpolation-filters="sRGB">
<feFlood flood-opacity="0" result="BackgroundImageFix"/>
<feColorMatrix in="SourceAlpha" type="matrix" values="0 0 0 0 0 0 0 0 0 0 0 0 0 0 0 0 0 0 127 0" result="hardAlpha"/>
<feOffset dy="10"/>
<feGaussianBlur stdDeviation="7"/>
<feComposite in2="hardAlpha" operator="out"/>
<feColorMatrix type="matrix" values="0 0 0 0 0 0 0 0 0 0 0 0 0 0 0 0 0 0 0.17 0"/>
<feBlend mode="normal" in2="BackgroundImageFix" result="effect1_dropShadow_651_4642"/>
<feBlend mode="normal" in="SourceGraphic" in2="effect1_dropShadow_651_4642" result="shape"/>
</filter>
<linearGradient id="paint0_linear_651_4642" x1="38.982" y1="-11.0857" x2="38.982" y2="39.0366" gradientUnits="userSpaceOnUse">
<stop stop-color="#FA872F"/>
<stop offset="1" stop-color="#F12562"/>
</linearGradient>
<linearGradient id="paint1_linear_651_4642" x1="38.982" y1="-11.0857" x2="38.982" y2="39.0366" gradientUnits="userSpaceOnUse">
<stop stop-color="#FA872F"/>
<stop offset="1" stop-color="#F12562"/>
</linearGradient>
<linearGradient id="paint2_linear_651_4642" x1="38.982" y1="-11.0857" x2="38.982" y2="39.0366" gradientUnits="userSpaceOnUse">
<stop stop-color="#FA872F"/>
<stop offset="1" stop-color="#F12562"/>
</linearGradient>
<linearGradient id="paint3_linear_651_4642" x1="38.982" y1="-11.0857" x2="38.982" y2="39.0366" gradientUnits="userSpaceOnUse">
<stop stop-color="#FA872F"/>
<stop offset="1" stop-color="#F12562"/>
</linearGradient>
<linearGradient id="paint4_linear_651_4642" x1="38.982" y1="-11.0857" x2="38.982" y2="39.0366" gradientUnits="userSpaceOnUse">
<stop stop-color="#FA872F"/>
<stop offset="1" stop-color="#F12562"/>
</linearGradient>
<linearGradient id="paint5_linear_651_4642" x1="38.982" y1="-11.0857" x2="38.982" y2="39.0366" gradientUnits="userSpaceOnUse">
<stop stop-color="#FA872F"/>
<stop offset="1" stop-color="#F12562"/>
</linearGradient>
<linearGradient id="paint6_linear_651_4642" x1="38.982" y1="-11.0857" x2="38.982" y2="39.0366" gradientUnits="userSpaceOnUse">
<stop stop-color="#FA872F"/>
<stop offset="1" stop-color="#F12562"/>
</linearGradient>
<linearGradient id="paint7_linear_651_4642" x1="38.982" y1="-11.0857" x2="38.982" y2="39.0366" gradientUnits="userSpaceOnUse">
<stop stop-color="#FA872F"/>
<stop offset="1" stop-color="#F12562"/>
</linearGradient>
<linearGradient id="paint8_linear_651_4642" x1="38.982" y1="-11.0857" x2="38.982" y2="39.0366" gradientUnits="userSpaceOnUse">
<stop stop-color="#FA872F"/>
<stop offset="1" stop-color="#F12562"/>
</linearGradient>
<linearGradient id="paint9_linear_651_4642" x1="38.982" y1="-11.0857" x2="38.982" y2="39.0366" gradientUnits="userSpaceOnUse">
<stop stop-color="#FA872F"/>
<stop offset="1" stop-color="#F12562"/>
</linearGradient>
<linearGradient id="paint10_linear_651_4642" x1="38.982" y1="-11.0857" x2="38.982" y2="39.0366" gradientUnits="userSpaceOnUse">
<stop stop-color="#FA872F"/>
<stop offset="1" stop-color="#F12562"/>
</linearGradient>
<linearGradient id="paint11_linear_651_4642" x1="38.982" y1="-11.0857" x2="38.982" y2="39.0366" gradientUnits="userSpaceOnUse">
<stop stop-color="#FA872F"/>
<stop offset="1" stop-color="#F12562"/>
</linearGradient>
<linearGradient id="paint12_linear_651_4642" x1="38.982" y1="-11.0857" x2="38.982" y2="39.0366" gradientUnits="userSpaceOnUse">
<stop stop-color="#FA872F"/>
<stop offset="1" stop-color="#F12562"/>
</linearGradient>
<linearGradient id="paint13_linear_651_4642" x1="38.982" y1="-11.0857" x2="38.982" y2="39.0366" gradientUnits="userSpaceOnUse">
<stop stop-color="#FA872F"/>
<stop offset="1" stop-color="#F12562"/>
</linearGradient>
<linearGradient id="paint14_linear_651_4642" x1="38.982" y1="-11.0857" x2="38.982" y2="39.0366" gradientUnits="userSpaceOnUse">
<stop stop-color="#FA872F"/>
<stop offset="1" stop-color="#F12562"/>
</linearGradient>
<linearGradient id="paint15_linear_651_4642" x1="38.982" y1="-11.0857" x2="38.982" y2="39.0366" gradientUnits="userSpaceOnUse">
<stop stop-color="#FA872F"/>
<stop offset="1" stop-color="#F12562"/>
</linearGradient>
<clipPath id="clip0_651_4642">
<rect width="50" height="37" fill="white" transform="translate(14 4)"/>
</clipPath>
</defs>
</svg>
