<svg width="76" height="76" viewBox="0 0 76 76" fill="none" xmlns="http://www.w3.org/2000/svg">
<g clip-path="url(#clip0_0_265)">
<g filter="url(#filter0_d_0_265)">
<path d="M38 65.3125C53.0843 65.3125 65.3125 53.0843 65.3125 38C65.3125 22.9157 53.0843 10.6875 38 10.6875C22.9157 10.6875 10.6875 22.9157 10.6875 38C10.6875 53.0843 22.9157 65.3125 38 65.3125Z" fill="white"/>
</g>
<path d="M58.1163 19.5296L43.9376 27.7163V11.3418C42.0257 10.9179 40.0402 10.6875 38.0001 10.6875C35.96 10.6875 33.9745 10.9179 32.0626 11.3418V27.7163L17.8838 19.5296C15.206 22.4437 13.1528 25.9409 11.9392 29.8098L26.1251 38L11.9392 46.1902C13.154 50.0591 15.2072 53.5551 17.8838 56.4704L32.0626 48.2837V64.657C33.9745 65.0821 35.96 65.3125 38.0001 65.3125C40.0402 65.3125 42.0257 65.0821 43.9376 64.6582V48.2837L58.1163 56.4704C60.7941 53.5563 62.8473 50.0591 64.061 46.1902L49.8751 38L64.061 29.8098C62.8473 25.9409 60.7941 22.4437 58.1163 19.5296Z" fill="#B0B8C4"/>
<path d="M38 58.6835C49.4232 58.6835 58.6835 49.4232 58.6835 38C58.6835 26.5767 49.4232 17.3164 38 17.3164C26.5767 17.3164 17.3164 26.5767 17.3164 38C17.3164 49.4232 26.5767 58.6835 38 58.6835Z" fill="white"/>
<path d="M38 52.9114C46.2353 52.9114 52.9114 46.2353 52.9114 38C52.9114 29.7647 46.2353 23.0886 38 23.0886C29.7647 23.0886 23.0886 29.7647 23.0886 38C23.0886 46.2353 29.7647 52.9114 38 52.9114Z" fill="#B0B8C4"/>
</g>
<defs>
<filter id="filter0_d_0_265" x="-3.3125" y="0.6875" width="82.625" height="82.625" filterUnits="userSpaceOnUse" color-interpolation-filters="sRGB">
<feFlood flood-opacity="0" result="BackgroundImageFix"/>
<feColorMatrix in="SourceAlpha" type="matrix" values="0 0 0 0 0 0 0 0 0 0 0 0 0 0 0 0 0 0 127 0" result="hardAlpha"/>
<feOffset dy="4"/>
<feGaussianBlur stdDeviation="7"/>
<feComposite in2="hardAlpha" operator="out"/>
<feColorMatrix type="matrix" values="0 0 0 0 0.10422 0 0 0 0 0.143913 0 0 0 0 0.129623 0 0 0 0.75 0"/>
<feBlend mode="normal" in2="BackgroundImageFix" result="effect1_dropShadow_0_265"/>
<feBlend mode="normal" in="SourceGraphic" in2="effect1_dropShadow_0_265" result="shape"/>
</filter>
<clipPath id="clip0_0_265">
<rect width="76" height="76" fill="white"/>
</clipPath>
</defs>
</svg>
